<?xml version="1.0" encoding="iso-8859-1"?>
<!-- Generator: Adobe Illustrator 26.0.0, SVG Export Plug-In . SVG Version: 6.00 Build 0)  -->
<svg version="1.1" id="Layer_1" xmlns="http://www.w3.org/2000/svg" xmlns:xlink="http://www.w3.org/1999/xlink" x="0px" y="0px"
	 viewBox="0 0 500 500" style="enable-background:new 0 0 500 500;" xml:space="preserve">
<g>
	<rect x="63.165" y="98.9" style="fill:#00A884;" width="373.669" height="243.919"/>
	<path style="fill-rule:evenodd;clip-rule:evenodd;fill:#54656F;" d="M69.608,105.042h360.784v231.184H69.608V105.042z
		 M50.28,336.226V105.042c0-10.674,8.653-19.328,19.328-19.328h360.784c10.675,0,19.328,8.653,19.328,19.328v231.184h45.098v7.192
		c0,14.232-11.538,25.77-25.77,25.77h-38.655H69.608H30.952c-14.233,0-25.77-11.538-25.77-25.77v-7.192H50.28z"/>
	<path style="fill-rule:evenodd;clip-rule:evenodd;fill-opacity:0.6;" d="M69.608,105.042h360.784v231.184H69.608V105.042z
		 M50.28,336.226V105.042c0-10.674,8.653-19.328,19.328-19.328h360.784c10.675,0,19.328,8.653,19.328,19.328v231.184h45.098v7.192
		c0,14.232-11.538,25.77-25.77,25.77h-38.655H69.608H30.952c-14.233,0-25.77-11.538-25.77-25.77v-7.192H50.28z"/>
	<path style="fill:#25D366;" d="M153.361,195.238h193.277c7.116,0,12.885,5.769,12.885,12.885v193.277
		c0,7.116-5.769,12.885-12.885,12.885H153.361c-7.116,0-12.885-5.769-12.885-12.885V208.123
		C140.476,201.007,146.245,195.238,153.361,195.238z"/>
	<path style="fill-rule:evenodd;clip-rule:evenodd;fill:#FFFFFF;" d="M179.706,304.142c0.016-38.739,31.679-70.248,70.582-70.248
		c18.87,0.008,36.598,7.323,49.923,20.599c13.325,13.276,20.664,30.935,20.657,49.704c-0.016,38.739-31.681,70.252-70.58,70.252
		c-11.523-0.004-22.835-2.798-32.952-8.121l-35.338,9.225c-1.703,0.445-3.248-1.121-2.781-2.818l9.437-34.305
		C182.78,327.971,179.702,316.19,179.706,304.142z M250.253,361.911h-0.023c-10.3-0.004-20.403-2.758-29.216-7.963l-2.096-1.238
		l-21.725,5.672l5.798-21.082l-1.365-2.161c-5.746-9.096-8.781-19.608-8.776-30.403c0.012-31.498,25.763-57.124,57.426-57.124
		c15.332,0.005,29.744,5.955,40.582,16.754c10.837,10.798,16.802,25.152,16.796,40.417
		C307.642,336.282,281.892,361.911,250.253,361.911z M269.608,312.962c1.573,0.578,10.009,4.76,11.725,5.626
		c0.334,0.169,0.647,0.321,0.938,0.463c1.197,0.583,2.006,0.977,2.35,1.557c0.429,0.721,0.429,4.183-1.001,8.223
		c-1.43,4.039-8.286,7.725-11.582,8.221c-2.956,0.445-6.698,0.631-10.808-0.685c-2.492-0.797-5.689-1.861-9.782-3.643
		c-16.085-6.999-26.955-22.707-29.012-25.679c-0.144-0.209-0.245-0.354-0.302-0.43l-0.014-0.019
		c-0.908-1.221-6.993-9.402-6.993-17.869c0-7.964,3.882-12.139,5.669-14.061c0.122-0.131,0.235-0.253,0.336-0.364
		c1.573-1.73,3.432-2.163,4.576-2.163c1.144,0,2.289,0.011,3.288,0.061c0.124,0.006,0.252,0.005,0.385,0.005
		c1-0.006,2.247-0.013,3.476,2.964c0.472,1.143,1.162,2.837,1.891,4.624c1.478,3.625,3.112,7.636,3.4,8.215
		c0.429,0.866,0.715,1.875,0.143,3.029c-0.086,0.173-0.165,0.336-0.241,0.492c-0.43,0.884-0.745,1.535-1.475,2.392
		c-0.285,0.336-0.58,0.698-0.876,1.061c-0.591,0.725-1.183,1.452-1.698,1.969c-0.859,0.862-1.753,1.797-0.752,3.529
		c1.001,1.731,4.445,7.393,9.545,11.978c5.484,4.929,10.25,7.012,12.665,8.068c0.472,0.206,0.854,0.373,1.134,0.515
		c1.716,0.866,2.717,0.721,3.718-0.433c1.001-1.154,4.289-5.049,5.434-6.78C266.891,312.097,268.035,312.385,269.608,312.962z"/>
</g>
</svg>
